<svg xmlns="http://www.w3.org/2000/svg" width="26.981" height="24.08" viewBox="0 0 26.981 24.08">
  <g id="_3XrHbH.tif" data-name="3XrHbH.tif" transform="translate(-5790.333 -32.96)">
    <g id="Group_3895" data-name="Group 3895">
      <path id="Path_5098" data-name="Path 5098" d="M5804.014,52.963h-9.068a2.613,2.613,0,0,1-.821-.091.942.942,0,0,1-.341-1.665c.717-.611,1.41-1.246,2.117-1.867a2.062,2.062,0,0,0,.7-1.484c.117-1.379.2-2.759.244-4.142.023-.792.043-1.585.089-2.376a6.391,6.391,0,0,1,1.793-4.11,6.967,6.967,0,0,1,3.492-2.019c.2-.049.271-.144.262-.331-.011-.224,0-.449,0-.673a1.286,1.286,0,0,1,1.335-1.246h.333a1.324,1.324,0,0,1,1.428,1.312c.007.2.012.4,0,.606s.055.3.27.343a6.685,6.685,0,0,1,1.2.409c.184.078.212.155.1.318a4.124,4.124,0,0,0-.754,2.373,4.505,4.505,0,0,0,3.829,4.383,3.5,3.5,0,0,0,.637.056c.165,0,.249.067.253.226s.018.3.024.448c.059,1.6.129,3.2.333,4.787a1.43,1.43,0,0,0,.437.893c.712.692,1.46,1.349,2.224,1.988a1.257,1.257,0,0,1,.467.83.79.79,0,0,1-.439.832,1.973,1.973,0,0,1-1.007.2Q5808.583,52.961,5804.014,52.963Zm.011-.918h9.044c.1,0,.19,0,.284,0s.194,0,.219-.1-.074-.121-.131-.171c-.739-.642-1.479-1.285-2.187-1.959a2.359,2.359,0,0,1-.756-1.455c-.188-1.472-.273-2.949-.316-4.428-.006-.207-.063-.3-.29-.346a5.34,5.34,0,0,1-2.109-.885,5.161,5.161,0,0,1-2.361-4.382,4.85,4.85,0,0,1,.378-1.907c.07-.169.033-.246-.154-.282-.271-.052-.538-.127-.81-.174-.192-.032-.265-.117-.26-.3.01-.434,0-.868,0-1.3,0-.366-.125-.472-.546-.473-.442,0-.579.107-.581.467,0,.441-.007.883,0,1.324,0,.175-.063.258-.249.284-.2.029-.4.081-.6.126a5.894,5.894,0,0,0-4.7,5.46c-.029.934-.058,1.868-.1,2.8q-.078,1.883-.244,3.759a2.587,2.587,0,0,1-.873,1.8c-.651.579-1.291,1.169-1.947,1.743-.1.092-.326.168-.266.305s.3.093.456.093Q5799.479,52.046,5804.025,52.045Z" fill="#4d4d4d"/>
      <path id="Path_5099" data-name="Path 5099" d="M5811.09,35.022a3.337,3.337,0,1,1-3.532,3.286A3.421,3.421,0,0,1,5811.09,35.022Zm.649,3.394c0-.516,0-1.031,0-1.547,0-.152-.059-.2-.219-.218a2.623,2.623,0,0,0-1.362.382.121.121,0,0,0-.082.122c-.012.423.123.509.516.324.3-.143.317-.134.318.194,0,.643-.006,1.286,0,1.929.007.622-.114.529.576.545.2.005.256-.073.253-.251C5811.734,39.4,5811.74,38.909,5811.739,38.416Z" fill="#ff8200"/>
      <path id="Path_5100" data-name="Path 5100" d="M5804.148,57.04a4.377,4.377,0,0,1-4.28-2.937.471.471,0,0,1,.23-.6.5.5,0,0,1,.569.082.8.8,0,0,1,.173.34,3.22,3.22,0,0,0,2.547,2.118,3.354,3.354,0,0,0,3.762-2c.033-.084.058-.171.091-.255a.484.484,0,0,1,.6-.312.453.453,0,0,1,.336.583,3.953,3.953,0,0,1-1.309,1.965A4.4,4.4,0,0,1,5804.148,57.04Z" fill="#4d4d4d"/>
      <path id="Path_5101" data-name="Path 5101" d="M5817.31,48.007a2.3,2.3,0,0,1,0,.246.519.519,0,0,1-.547.483.513.513,0,0,1-.505-.52,6.754,6.754,0,0,0-.245-1.774,3.218,3.218,0,0,0-1.157-1.759c-.119-.086-.257-.147-.384-.222a.483.483,0,0,1-.222-.675.536.536,0,0,1,.714-.207,3.687,3.687,0,0,1,1.775,1.832A6.484,6.484,0,0,1,5817.31,48.007Z" fill="#4d4d4d"/>
      <path id="Path_5102" data-name="Path 5102" d="M5790.334,47.959a5.605,5.605,0,0,1,1.184-3.489,3.326,3.326,0,0,1,1.128-.874.576.576,0,0,1,.6.024.465.465,0,0,1-.034.811,3.523,3.523,0,0,0-1.778,3.038c-.032.244-.036.492-.047.738a.529.529,0,0,1-1.057.012C5790.33,48.144,5790.334,48.069,5790.334,47.959Z" fill="#4d4d4d"/>
      <path id="Path_5103" data-name="Path 5103" d="M5794.384,44.862a.517.517,0,0,1,.5.314.467.467,0,0,1-.206.592,2.339,2.339,0,0,0-1.151,2.109,1.881,1.881,0,0,1-.054.532.507.507,0,0,1-.558.324.472.472,0,0,1-.446-.426,3.9,3.9,0,0,1,.827-2.742,2.581,2.581,0,0,1,.732-.6A.685.685,0,0,1,5794.384,44.862Z" fill="#4d4d4d"/>
      <path id="Path_5104" data-name="Path 5104" d="M5815.186,47.906c0,.151,0,.241,0,.331a.511.511,0,0,1-.477.5.5.5,0,0,1-.557-.416c-.054-.279-.022-.566-.074-.847a2.733,2.733,0,0,0-.5-1.221,1.439,1.439,0,0,0-.531-.435.492.492,0,0,1-.275-.656.531.531,0,0,1,.717-.247,2.483,2.483,0,0,1,1.154,1.058A3.957,3.957,0,0,1,5815.186,47.906Z" fill="#4d4d4d"/>
    </g>
  </g>
</svg>
